<svg width="612" height="286" xmlns="http://www.w3.org/2000/svg" xml:space="preserve" enable-background="new 0 0 612 792" version="1.1">

 <g>
  <title>Layer 1</title>
  <path id="svg_1" d="m476.717,236.163l0.025,0l0,-47.426l13.078,0l0,48.224l-0.017,0l0,5.908l0.017,0l0,28.512l-13.078,0l0,-23.176l-0.025,0l0,-12.042zm60.632,-47.426l13.086,0l0,48.224l-0.008,0l0,5.908l0.008,0l0,28.512l-13.086,0l0,-28.512l0.025,0l0,-5.908l-0.025,0l0,-48.224zm-15.535,-5.908c-1.686,0 -2.98,1.313 -2.98,2.893c0,1.702 1.297,3.016 2.98,3.016l9.716,0l0,48.224l-35.881,0l0,-48.224l9.195,0c1.553,0 2.851,-1.313 2.851,-3.016c0,-1.579 -1.298,-2.893 -2.851,-2.893l-43.637,0c-1.684,0 -2.981,1.313 -2.981,2.893c0,1.702 1.298,3.016 2.981,3.016l9.708,0l0,82.644l-9.708,0c-1.684,0 -2.981,1.313 -2.981,2.891c0,1.708 1.298,3.021 2.981,3.021l43.637,0c1.553,0 2.851,-1.313 2.851,-3.021c0,-1.579 -1.298,-2.891 -2.851,-2.891l-9.195,0l0,-28.512l35.881,0l0,28.512l-9.716,0c-1.686,0 -2.98,1.313 -2.98,2.891c0,1.708 1.297,3.021 2.98,3.021l43.772,0c1.555,0 2.847,-1.313 2.847,-3.021c0,-1.579 -1.292,-2.891 -2.847,-2.891l-9.325,0l0,-82.644l9.325,0c1.555,0 2.847,-1.313 2.847,-3.016c0,-1.579 -1.292,-2.893 -2.847,-2.893l-43.772,0l0,0zm-460.253,53.846l0.009,0l0,-48.455l13.478,0l0,48.992l-0.05,0l0,5.787l0.05,0l0,28.508l-13.479,0l0,-25.306l-0.009,0l0,-9.526l0.001,0zm-15.135,-54.237c-1.56,0 -2.85,1.305 -2.85,2.886c0,1.583 1.292,2.896 2.85,2.896l9.451,0l0,83.286l-8.935,0c-1.554,0 -2.855,1.322 -2.855,2.887c0,1.586 1.301,2.898 2.855,2.898l43.38,0c1.551,0 2.846,-1.313 2.846,-2.898c0,-1.564 -1.295,-2.887 -2.846,-2.887l-9.584,0l0,-28.509l18.648,0l0,9.072c0,1.575 1.297,2.878 2.852,2.878c1.558,0 2.855,-1.303 2.855,-2.878l0,-24.174c0,-1.585 -1.297,-2.894 -2.855,-2.894c-1.555,0 -2.852,1.311 -2.852,2.894l0,9.315l-18.648,0l0,-48.993l40.015,0l0,9.06c0,1.576 1.299,2.893 2.855,2.893c1.553,0 2.85,-1.316 2.85,-2.893l0,-11.956c0,-1.581 -1.297,-2.886 -2.85,-2.886l-77.182,0l0,0.003zm232.314,60.561l0,-5.787l0,-48.993l13.469,0l0,48.993l-0.056,0l0,5.787l0.056,0l0,28.508l-13.469,0l0,-28.508zm-15.149,-60.561c-1.558,0 -2.854,1.305 -2.854,2.886c0,1.583 1.295,2.896 2.854,2.896l9.446,0l0,83.286l-9.446,0c-1.558,0 -2.854,1.322 -2.854,2.887c0,1.586 1.295,2.898 2.854,2.898l77.179,0c1.559,0 2.859,-1.313 2.859,-2.898l0,-11.951c0,-1.572 -1.301,-2.885 -2.859,-2.885c-1.545,0 -2.844,1.313 -2.844,2.885l0,9.063l-40.024,0l0,-28.508l18.651,0l0,9.071c0,1.576 1.301,2.878 2.855,2.878s2.845,-1.302 2.845,-2.878l0,-24.174c0,-1.585 -1.292,-2.894 -2.845,-2.894s-2.855,1.311 -2.855,2.894l0,9.316l-18.651,0l0,-48.993l40.024,0l0,9.059c0,1.576 1.299,2.893 2.844,2.893c1.559,0 2.859,-1.316 2.859,-2.893l0,-11.956c0,-1.581 -1.301,-2.886 -2.859,-2.886l-77.179,0l0,0.004zm-46.744,86.181c-1.173,-2.233 -1.297,-5.655 -1.297,-9.06c0,-6.564 -0.653,-11.701 -3.634,-15.773c-0.253,-0.385 -0.513,-0.652 -0.897,-1.051l1.812,0c2.72,0 10.741,0.134 14.113,4.604c2.076,2.753 2.467,6.828 2.467,12.218c0,4.73 0.253,8.528 1.812,11.688c0.123,0 0.123,0.134 0.254,0.26l-8.677,0c-4.01,0.002 -5.311,-1.573 -5.953,-2.886m-49.735,-23.731l0,-8.633l0,-48.302l13.209,0l0,49.008l-0.018,0l0,5.775l0.018,0l0,28.771l-13.209,0l0,-26.619zm18.906,-56.935l6.353,0c9.838,0 17.868,8.148 17.868,18.263l0,12.74c0,4.867 -1.812,9.338 -5.184,12.744c-3.49,3.422 -7.902,5.261 -12.684,5.261l-6.353,0l0,-49.008zm22.93,47.825c4.529,-4.473 6.988,-10.385 6.988,-16.822l0,-12.74c0,-7.36 -3.241,-13.799 -8.289,-18.263l3.625,0c4.794,0 9.199,1.835 12.562,5.392c3.368,3.41 5.186,8.014 5.186,12.871l0,12.74c0,4.867 -1.817,9.462 -5.186,12.744c-3.236,3.422 -7.767,5.261 -12.562,5.261l-3.494,0l1.17,-1.183zm-62.166,-53.606c-1.571,0 -2.845,1.301 -2.845,2.888l0,0.06c0,1.559 1.249,2.832 2.787,2.832l14.69,0l0,83.554l-9.605,0c-1.195,0 -2.337,0.697 -2.756,1.829c-0.759,2.008 0.754,3.957 2.652,3.957l43.657,0c1.195,0 2.337,-0.696 2.762,-1.83c0.758,-1.991 -0.754,-3.956 -2.652,-3.956l-9.453,0l0,-28.771l7.25,0c2.722,0 10.753,0.133 14.125,4.604c2.067,2.753 2.458,6.828 2.458,12.219c0,4.729 0.253,8.527 1.812,11.688c2.067,3.938 5.828,6.045 11.139,6.045l19.55,0c1.915,0 3.429,-1.979 2.634,-3.994c-0.425,-1.092 -1.529,-1.783 -2.69,-1.792c-3.963,-0.017 -5.255,-1.574 -5.899,-2.888c-1.161,-2.232 -1.292,-5.655 -1.292,-9.059c0,-6.565 -0.655,-11.702 -3.629,-15.773c-1.686,-2.233 -4.144,-3.944 -7.125,-4.993c1.297,-0.919 2.467,-1.833 3.503,-3.016c4.401,-4.473 6.862,-10.385 6.862,-16.821l0,-12.74c0,-6.441 -2.459,-12.482 -6.862,-16.95c-4.404,-4.595 -10.232,-7.094 -16.581,-7.094l-64.491,0l0,0.001l-0.001,0zm280.882,65.956c-3.231,-3.681 -7.639,-6.572 -12.82,-8.148c-21.499,-6.572 -21.108,-6.303 -23.188,-6.963c-3.1,-0.919 -6.723,-3.415 -9.313,-6.312c-2.592,-2.884 -4.024,-6.303 -4.15,-9.449l0,-6.966c0.91,1.051 1.813,2.1 2.983,3.019c3.104,2.758 7.113,4.989 11.011,6.04l25.64,8.024c4.66,1.703 8.552,3.931 11.132,6.43c2.593,2.503 4.016,5.25 4.016,8.148l0,10.382c0.13,1.444 -0.122,2.752 -0.513,4.065l-0.391,1.055c-0.522,-3.285 -2.073,-6.578 -4.407,-9.325m-23.828,-67.01c-8.55,0.259 -16.449,3.155 -22.406,8.025c-2.979,2.49 -5.305,5.239 -6.862,8.274c-1.691,3.274 -2.458,6.697 -2.326,10.106l0,9.854c0,4.604 2.067,9.327 5.561,13.406c3.372,3.807 7.642,6.696 12.177,8.01c0,0 1.424,0.529 23.176,7.092c4.02,1.195 7.513,3.423 9.978,6.185c2.077,2.495 3.246,5.383 3.109,7.873c-0.13,3.418 -2.334,6.184 -6.216,7.886l-1.687,0.788l-2.85,0.782l0,0.137c-3.625,1.051 -7.636,1.709 -11.651,1.969c-8.287,0.271 -16.06,-1.309 -21.887,-4.722c-5.18,-2.901 -8.415,-6.84 -9.071,-11.047l0,-6.563c0,-1.701 -1.423,-3.015 -2.969,-3.015c-1.689,0 -3.112,1.313 -3.112,3.015l0,24.699c0,1.702 1.423,3.15 3.112,3.15c1.546,0 2.969,-1.448 2.969,-3.15l0,-6.306c1.562,1.444 3.503,2.898 5.705,4.069c6.35,3.685 14.509,5.655 23.184,5.655l2.325,0c4.409,-0.269 8.687,-0.92 12.688,-1.971l0,0.128c3.505,-0.788 6.353,-1.976 8.811,-3.672c6.48,-3.422 11.145,-8.148 13.078,-13.807c0.52,-1.834 0.784,-3.804 0.784,-5.637l0,-10.382c-0.131,-4.473 -2.076,-8.548 -5.829,-12.089c-3.362,-3.159 -7.902,-5.789 -13.463,-7.88l-25.903,-8.022c-5.968,-1.707 -12.434,-6.696 -12.952,-11.817c-0.52,-5.001 4.664,-9.063 9.581,-11.829c4.016,-1.843 8.548,-2.894 13.206,-3.156c5.442,-0.127 10.753,0.792 15.413,2.888c4.149,1.847 7.382,4.333 9.584,7.501l0,8.146c0,1.692 1.427,3.146 3.118,3.146c1.546,0 2.969,-1.454 2.969,-3.146l0,-20.895c0,-1.709 -1.423,-3.022 -2.969,-3.022c-1.691,0 -3.118,1.313 -3.118,3.022l0,3.936c-5.959,-4.812 -14.447,-7.652 -23.513,-7.652c-0.584,0.004 -1.163,0.017 -1.744,0.038m-389.68,-61.708c-0.281,0.034 -0.55,0.063 -0.834,0.092c-1.715,0.19 -2.722,1.961 -2.033,3.566c0.115,0.263 0.225,0.52 0.345,0.779c1.837,3.964 4.311,7.447 7.236,10.385c-4.007,1.067 -7.882,2.819 -11.439,5.34c-0.232,0.157 -0.466,0.326 -0.691,0.495c-1.391,1.038 -1.391,3.084 0,4.125c0.225,0.17 0.458,0.33 0.691,0.495c3.55,2.517 7.432,4.27 11.439,5.327c-2.925,2.953 -5.406,6.434 -7.236,10.395c-0.121,0.262 -0.229,0.516 -0.345,0.775c-0.698,1.604 0.31,3.381 2.033,3.574c0.284,0.031 0.554,0.058 0.834,0.085c1.024,0.093 2.059,0.137 3.075,0.137c13.647,0 26.031,-7.892 32.164,-19.644l161.775,0c1.75,0 3.156,-1.445 3.156,-3.206c0,-1.771 -1.405,-3.211 -3.156,-3.211l-161.775,0c-6.133,-11.74 -18.517,-19.64 -32.159,-19.64c-1.022,0.003 -2.044,0.05 -3.08,0.131m548.457,19.512l-161.783,0c-1.745,0 -3.15,1.441 -3.15,3.211c0,1.764 1.405,3.207 3.15,3.207l161.783,0c6.14,11.752 18.515,19.643 32.161,19.643c1.017,0 2.042,-0.043 3.069,-0.137c0.294,-0.025 0.56,-0.045 0.839,-0.084c1.718,-0.194 2.728,-1.971 2.033,-3.575c-0.115,-0.259 -0.234,-0.513 -0.348,-0.775c-1.831,-3.958 -4.307,-7.441 -7.226,-10.394c3.998,-1.059 7.877,-2.811 11.436,-5.328c0.229,-0.165 0.461,-0.325 0.683,-0.494c1.389,-1.041 1.389,-3.087 0,-4.125c-0.222,-0.169 -0.452,-0.338 -0.683,-0.495c-3.559,-2.521 -7.438,-4.273 -11.442,-5.34c2.926,-2.94 5.403,-6.421 7.234,-10.385c0.113,-0.259 0.232,-0.517 0.348,-0.779c0.694,-1.605 -0.315,-3.375 -2.033,-3.566c-0.279,-0.031 -0.56,-0.06 -0.839,-0.092c-1.029,-0.081 -2.055,-0.128 -3.069,-0.128c-13.648,-0.004 -26.023,7.897 -32.163,19.636m-211.593,-18.22l8.727,0c9.283,0 15.352,6.481 15.352,15.263l0,0.124c0,8.784 -6.068,15.14 -15.352,15.14l-8.727,0l0,-30.527zm-3.854,-7.182c-2.211,0 -3.919,1.736 -3.919,3.979l0,36.937c0,2.248 1.708,3.968 3.919,3.968l12.58,0c13.9,0 23.513,-9.806 23.513,-22.439l0,-0.126c0,-12.639 -9.614,-22.319 -23.513,-22.319l-12.58,0zm-29.283,31.107l0,0l-22.126,-29.058c-1.067,-1.339 -2.143,-2.305 -4.041,-2.305l-0.824,0c-2.211,0 -3.915,1.795 -3.915,3.969l0,37.646c0,2.123 1.704,3.85 3.859,3.85c2.083,0 3.787,-1.727 3.787,-3.85l0,-28.472l22.756,29.888c1.079,1.41 2.211,2.367 4.048,2.367l0.316,0c2.146,0 3.788,-1.729 3.788,-3.909l0,-37.71c0,-2.111 -1.702,-3.838 -3.856,-3.838c-2.087,0 -3.794,1.729 -3.794,3.838m-67.449,5.398l7.776,18.136l-15.552,0l7.776,-18.136zm-0.067,-9.557c-2.206,0 -3.787,1.214 -4.676,3.203l-16.437,37.188c-0.318,0.643 -0.509,1.224 -0.509,1.805c0,2.055 1.585,3.65 3.605,3.65c1.646,0 2.981,-0.9 3.609,-2.502l3.726,-8.652l21.495,0l3.6,8.393c0.694,1.678 1.965,2.762 3.789,2.762c2.096,0 3.668,-1.664 3.668,-3.785c0,-0.508 -0.122,-1.08 -0.439,-1.668l-16.428,-37.188c-0.896,-1.988 -2.411,-3.203 -4.62,-3.203l-0.383,0l0,-0.003zm-80.948,-100.96l12.812,0l0,81.393l-12.812,0l0,-81.393zm-15.241,-5.671c-1.531,0 -2.8,1.279 -2.8,2.83s1.269,2.843 2.8,2.843l9.64,0l0,81.391l-9.64,0c-1.531,0 -2.8,1.287 -2.8,2.832c0,1.542 1.269,2.834 2.8,2.834l68.552,0c1.522,0 2.792,-1.292 2.792,-2.834l0,-12.109c0,-1.547 -1.271,-2.833 -2.792,-2.833c-1.524,0 -2.791,1.288 -2.791,2.833l0,9.275l-32.124,0l0,-81.391l9.144,0c1.525,0 2.787,-1.292 2.787,-2.842c0,-1.551 -1.261,-2.831 -2.787,-2.831l-42.781,0l0,0.002zm306.566,19.575l0,-14.044l7.369,0l30.714,61.699l-6.472,15.962l-31.611,-63.617zm70.085,-14.044l12.943,0l0,81.533l-12.943,0l0,-81.533zm-2.796,-5.666c-0.508,0 -1.021,0.135 -1.524,0.391c-0.504,0.388 -1.021,0.906 -1.267,1.549l-23.61,58.473l-29.33,-58.732c-0.637,-1.157 -1.397,-1.682 -2.542,-1.682l-23.61,0c-1.522,0 -2.796,1.295 -2.796,2.843c0,1.54 1.273,2.823 2.796,2.823l9.012,0l0,81.535l-9.012,0c-1.522,0 -2.796,1.287 -2.796,2.832c0,1.542 1.273,2.834 2.796,2.834l23.61,0c1.521,0 2.792,-1.292 2.792,-2.834c0,-1.545 -1.271,-2.832 -2.792,-2.832l-9.016,0l0,-54.867l29.452,59.115c0.511,1.029 1.409,1.545 2.541,1.545c1.144,0 2.158,-0.639 2.54,-1.675l9.271,-22.927c0,-0.123 0,-0.254 0.127,-0.381l20.564,-51.259l0,70.448l-8.758,0c-1.529,0 -2.796,1.287 -2.796,2.832c0,1.542 1.267,2.834 2.796,2.834l42.644,0c1.535,0 2.8,-1.292 2.8,-2.834c0,-1.545 -1.267,-2.832 -2.8,-2.832l-9.766,0l0,-81.533l9.766,0c1.535,0 2.8,-1.283 2.8,-2.823c0,-1.547 -1.267,-2.843 -2.8,-2.843l-31.092,0zm-441.39,45.338l15.743,0c4.692,0 9.14,1.804 12.439,5.28c3.307,3.35 5.202,7.857 5.202,12.621l0,6.312c0,9.656 -7.873,17.648 -17.641,17.648l-15.743,0l0,-41.861zm38.975,24.212l0,-6.312c0,-6.306 -2.409,-12.236 -6.856,-16.615c-0.382,-0.507 -0.889,-0.898 -1.267,-1.288l3.551,0c4.698,0 9.145,1.805 12.439,5.281c3.298,3.35 5.205,7.857 5.205,12.621l0,6.312c0,9.656 -7.996,17.648 -17.645,17.648l-3.551,0c4.947,-4.25 8.124,-10.687 8.124,-17.647m-57.643,-64.266l13.082,0l0,34.382l-0.032,0l0,5.671l0.032,0l0,41.861l-13.082,0l0,-41.861l0.009,0l0,-5.671l-0.009,0l0,-34.382zm18.668,0l10.662,0c3.816,0 7.614,1.547 10.414,4.375c2.924,2.841 4.435,6.441 4.435,10.308l0,5.279c0,7.855 -6.844,14.42 -14.849,14.42l-10.662,0l0,-34.382zm25.006,34.255c3.938,-3.857 6.097,-8.877 6.097,-14.292l0,-5.279c0,-5.675 -2.54,-10.944 -6.471,-14.685l5.075,0c3.807,0 7.364,1.547 10.16,4.375c2.659,2.709 4.185,6.441 4.185,10.308l0,5.279c0,7.983 -6.472,14.42 -14.345,14.42l-4.951,0c0.128,0.001 0.128,-0.126 0.25,-0.126m-58.776,-39.917c-1.524,0 -2.787,1.283 -2.787,2.83c0,1.54 1.261,2.832 2.787,2.832l9.524,0l0,81.914l-9.524,0c-1.524,0 -2.787,1.287 -2.787,2.832c0,1.542 1.261,2.834 2.787,2.834l68.174,0c12.825,0 23.234,-10.436 23.234,-23.315l0,-6.312c0,-6.306 -2.418,-12.236 -6.856,-16.615c-2.541,-2.571 -5.464,-4.511 -8.76,-5.666c4.692,-3.609 7.614,-9.271 7.614,-15.712l0,-5.279c0,-5.405 -2.024,-10.435 -5.84,-14.303c-3.813,-3.863 -8.764,-6.043 -14.091,-6.043l-63.475,0l0,0.003zm254.145,69.412l0,-56.41c1.523,1.292 3.179,2.575 4.57,4.124c7.876,7.988 12.314,18.673 12.314,30.003c0,11.333 -4.438,21.896 -12.314,30.016c-2.665,2.708 -5.837,5.146 -9.137,6.95c2.917,-4.242 4.567,-9.271 4.567,-14.683m-54.589,7.733c-7.87,-8.12 -12.186,-18.681 -12.186,-30.016c0,-11.33 4.316,-22.015 12.186,-30.003c2.54,-2.575 5.336,-4.768 8.38,-6.563c-2.791,4.107 -4.446,9.268 -4.446,14.67l0,55.384l-3.934,-3.472zm9.525,7.208l0,-59.119c0,-11.329 9.012,-20.597 20.059,-20.597c6.853,0 13.459,1.667 19.419,4.764l0,60.009c0,5.414 -2.152,10.558 -5.833,14.294c-3.816,3.735 -8.762,5.802 -14.091,5.802c-6.984,-0.125 -13.586,-1.93 -19.554,-5.153m1.648,-81.523c-5.583,2.312 -10.656,5.793 -15.102,10.308c-4.32,4.379 -7.745,9.528 -10.156,15.192c-2.409,5.928 -3.685,12.236 -3.685,18.8c0,6.439 1.274,12.752 3.685,18.673c2.411,5.68 5.836,10.831 10.156,15.333c4.446,4.374 9.52,7.855 15.102,10.304c5.85,2.445 12.062,3.735 18.411,3.735c6.472,0 12.697,-1.292 18.533,-3.735c5.587,-2.449 10.66,-5.93 14.985,-10.304c4.434,-4.503 7.864,-9.652 10.15,-15.333c2.537,-5.921 3.808,-12.234 3.808,-18.673c0,-6.563 -1.272,-12.872 -3.808,-18.8c-2.286,-5.664 -5.717,-10.813 -10.15,-15.192c-4.325,-4.516 -9.398,-7.998 -14.985,-10.308c-5.836,-2.583 -12.062,-3.863 -18.398,-3.863c-6.484,0.001 -12.697,1.28 -18.546,3.863m150.435,66.582l0,-56.41c1.521,1.292 3.176,2.575 4.57,4.124c7.868,7.988 12.315,18.673 12.315,30.003c0,11.333 -4.447,21.896 -12.315,30.016c-2.67,2.708 -5.837,5.146 -9.146,6.95c2.929,-4.242 4.576,-9.271 4.576,-14.683m-54.588,7.733c-7.873,-8.12 -12.185,-18.681 -12.185,-30.016c0,-11.33 4.313,-22.015 12.185,-30.003c2.538,-2.575 5.327,-4.768 8.373,-6.563c-2.787,4.107 -4.442,9.268 -4.442,14.67l0,55.384l-3.931,-3.472zm9.518,7.208l0,-59.119c0,-11.329 9.012,-20.597 20.063,-20.597c6.856,0 13.456,1.667 19.424,4.764l0,60.009c0,5.414 -2.161,10.558 -5.839,14.294c-3.815,3.735 -8.767,5.802 -14.095,5.802c-6.992,-0.125 -13.585,-1.93 -19.553,-5.153m1.651,-81.523c-5.583,2.312 -10.664,5.793 -15.111,10.308c-4.313,4.379 -7.738,9.528 -10.152,15.192c-2.409,5.928 -3.676,12.236 -3.676,18.8c0,6.439 1.267,12.752 3.676,18.673c2.414,5.68 5.84,10.831 10.152,15.333c4.447,4.374 9.528,7.855 15.111,10.304c5.84,2.445 12.058,3.735 18.411,3.735c6.475,0 12.693,-1.292 18.533,-3.735c5.583,-2.449 10.665,-5.93 14.975,-10.304c4.447,-4.503 7.875,-9.652 10.165,-15.333c2.538,-5.921 3.809,-12.234 3.809,-18.673c0,-6.563 -1.27,-12.872 -3.809,-18.8c-2.29,-5.664 -5.718,-10.813 -10.165,-15.192c-4.312,-4.516 -9.394,-7.998 -14.975,-10.308c-5.84,-2.583 -12.059,-3.863 -18.405,-3.863c-6.481,0.001 -12.699,1.28 -18.539,3.863" fill="#3B454D"/>
 </g>
</svg>